<svg xmlns="http://www.w3.org/2000/svg" viewBox="0 0 120 100">
  <!-- Cloud shape -->
  <path d="M95,68 H25 C10,68 2,56 8,42 C11,34 19,29 29,29 C29,15 40,5 56,5 C68,5 78,13 82,24 C86,21 92,20 98,23 C110,27 114,41 108,54 C104,63 100,68 95,68 Z" fill="#6366f1"/>
  <!-- Word-lines inside the cloud (wordcloud metaphor) -->
  <rect x="30" y="32" width="18" height="5" rx="2.5" fill="white" opacity="0.9"/>
  <rect x="52" y="32" width="28" height="5" rx="2.5" fill="white" opacity="0.65"/>
  <rect x="25" y="42" width="38" height="8" rx="4" fill="white" opacity="0.95"/>
  <rect x="67" y="42" width="18" height="8" rx="4" fill="white" opacity="0.7"/>
  <rect x="33" y="55" width="22" height="5" rx="2.5" fill="white" opacity="0.8"/>
  <rect x="59" y="55" width="16" height="5" rx="2.5" fill="white" opacity="0.55"/>
</svg>
